# xmcd
#
# Track frame offsets: 
#        150
#        16777
#        36564
#        56807
#        72004
#
# Disc length: 1215 seconds
#
# Revision: 0
# Processed by: cddbd v1.5.2PL0 Copyright (c) Steve Scherf et al.
# Submitted via: ExactAudioCopy v0.99pb4
#
DISCID=3e04bd05
DTITLE=Justine Bennett - Invisible
DYEAR=2008
DGENRE=Country
TTITLE0=I Miss You
TTITLE1=America
TTITLE2=Invisible
TTITLE3=Chanting
TTITLE4=Lost In Love
EXTD=
EXTT0=
EXTT1=
EXTT2=
EXTT3=
EXTT4=
PLAYORDER=
